<mxfile host="app.diagrams.net" agent="Mozilla/5.0 (Windows NT 10.0; Win64; x64; rv:137.0) Gecko/20100101 Firefox/137.0" version="26.2.13">
  <diagram name="Diagrama de Casos de Uso" id="DjnuiK8PyyJzFfoakw95">
    <mxGraphModel dx="2433" dy="1992" grid="1" gridSize="10" guides="1" tooltips="1" connect="1" arrows="1" fold="1" page="1" pageScale="1" pageWidth="827" pageHeight="1169" math="0" shadow="0">
      <root>
        <mxCell id="0" />
        <mxCell id="1" parent="0" />
        <mxCell id="ZHeTGY5Y9q0UBsN3ZSBc-150" value="Visitante" style="shape=umlActor;verticalLabelPosition=bottom;verticalAlign=top;" vertex="1" parent="1">
          <mxGeometry x="40" y="-10" width="30" height="60" as="geometry" />
        </mxCell>
        <mxCell id="ZHeTGY5Y9q0UBsN3ZSBc-151" value="Usuario_Tienda" style="shape=umlActor;verticalLabelPosition=bottom;verticalAlign=top;" vertex="1" parent="1">
          <mxGeometry x="40" y="140" width="30" height="60" as="geometry" />
        </mxCell>
        <mxCell id="ZHeTGY5Y9q0UBsN3ZSBc-152" value="Moderador" style="shape=umlActor;verticalLabelPosition=bottom;verticalAlign=top;" vertex="1" parent="1">
          <mxGeometry x="40" y="1250" width="30" height="60" as="geometry" />
        </mxCell>
        <mxCell id="ZHeTGY5Y9q0UBsN3ZSBc-153" value="Administrador/a_Tienda" style="shape=umlActor;verticalLabelPosition=bottom;verticalAlign=top;" vertex="1" parent="1">
          <mxGeometry x="40" y="350" width="30" height="60" as="geometry" />
        </mxCell>
        <mxCell id="ZHeTGY5Y9q0UBsN3ZSBc-155" value="Registrarse" style="ellipse;whiteSpace=wrap;html=1;" vertex="1" parent="1">
          <mxGeometry x="-170" y="-30" width="100" height="40" as="geometry" />
        </mxCell>
        <mxCell id="ZHeTGY5Y9q0UBsN3ZSBc-156" value="Iniciar sesión" style="ellipse;whiteSpace=wrap;html=1;" vertex="1" parent="1">
          <mxGeometry x="-310" y="-30" width="100" height="40" as="geometry" />
        </mxCell>
        <mxCell id="ZHeTGY5Y9q0UBsN3ZSBc-157" value="Tienda" style="rounded=1;strokeWidth=2;fillColor=#f2f2f2;arcSize=6;" vertex="1" parent="1">
          <mxGeometry x="170" y="-40" width="710" height="600" as="geometry" />
        </mxCell>
        <mxCell id="ZHeTGY5Y9q0UBsN3ZSBc-158" value="Buscar productos" style="ellipse;whiteSpace=wrap;html=1;" vertex="1" parent="ZHeTGY5Y9q0UBsN3ZSBc-157">
          <mxGeometry x="109.99614896851779" y="24" width="106.32922345277669" height="84" as="geometry" />
        </mxCell>
        <mxCell id="ZHeTGY5Y9q0UBsN3ZSBc-159" value="Añadir al carrito" style="ellipse;whiteSpace=wrap;html=1;" vertex="1" parent="ZHeTGY5Y9q0UBsN3ZSBc-157">
          <mxGeometry x="58.47851184015008" y="252" width="97.66811748463995" height="96" as="geometry" />
        </mxCell>
        <mxCell id="ZHeTGY5Y9q0UBsN3ZSBc-160" value="Ver carrito" style="ellipse;whiteSpace=wrap;html=1;" vertex="1" parent="ZHeTGY5Y9q0UBsN3ZSBc-157">
          <mxGeometry x="216.3255245602757" y="252" width="89.39255340450421" height="96" as="geometry" />
        </mxCell>
        <mxCell id="ZHeTGY5Y9q0UBsN3ZSBc-161" value="Realizar compra" style="ellipse;whiteSpace=wrap;html=1;" vertex="1" parent="ZHeTGY5Y9q0UBsN3ZSBc-157">
          <mxGeometry x="551.9986222849857" y="252" width="104.75397569792072" height="96" as="geometry" />
        </mxCell>
        <mxCell id="ZHeTGY5Y9q0UBsN3ZSBc-162" value="Consultar pedidos" style="ellipse;whiteSpace=wrap;html=1;" vertex="1" parent="ZHeTGY5Y9q0UBsN3ZSBc-157">
          <mxGeometry x="291.4155245602757" y="24" width="98.44628987553878" height="84" as="geometry" />
        </mxCell>
        <mxCell id="ZHeTGY5Y9q0UBsN3ZSBc-163" value="Gestionar Productos (CRUD)" style="ellipse;whiteSpace=wrap;html=1;" vertex="1" parent="ZHeTGY5Y9q0UBsN3ZSBc-157">
          <mxGeometry x="30" y="470" width="126.14" height="108" as="geometry" />
        </mxCell>
        <mxCell id="ZHeTGY5Y9q0UBsN3ZSBc-165" value="Pasarela de pago" style="ellipse;dashed=1;whiteSpace=wrap;html=1;" vertex="1" parent="ZHeTGY5Y9q0UBsN3ZSBc-157">
          <mxGeometry x="534.4759600719068" y="477.99000000000007" width="139.80323824346561" height="100" as="geometry" />
        </mxCell>
        <mxCell id="ZHeTGY5Y9q0UBsN3ZSBc-164" value="Gestionar Pedidos (CRUD)" style="ellipse;whiteSpace=wrap;html=1;" vertex="1" parent="ZHeTGY5Y9q0UBsN3ZSBc-157">
          <mxGeometry x="181.82" y="473.99" width="118.18" height="104" as="geometry" />
        </mxCell>
        <mxCell id="ZHeTGY5Y9q0UBsN3ZSBc-167" value="Blog" style="rounded=1;strokeWidth=2;fillColor=#f2f2f2;arcSize=5;" vertex="1" parent="1">
          <mxGeometry x="160" y="650" width="670" height="720" as="geometry" />
        </mxCell>
        <mxCell id="ZHeTGY5Y9q0UBsN3ZSBc-168" value="Ver hilos" style="ellipse;whiteSpace=wrap;html=1;" vertex="1" parent="ZHeTGY5Y9q0UBsN3ZSBc-167">
          <mxGeometry x="150.00169305724725" y="79.99" width="122.41169305724726" height="80" as="geometry" />
        </mxCell>
        <mxCell id="ZHeTGY5Y9q0UBsN3ZSBc-169" value="Suscribirse a hilos" style="ellipse;whiteSpace=wrap;html=1;" vertex="1" parent="ZHeTGY5Y9q0UBsN3ZSBc-167">
          <mxGeometry x="430.00305724725945" y="72.14" width="124.14993909866017" height="95.71" as="geometry" />
        </mxCell>
        <mxCell id="ZHeTGY5Y9q0UBsN3ZSBc-171" value="Filtrar comentarios" style="ellipse;whiteSpace=wrap;html=1;" vertex="1" parent="ZHeTGY5Y9q0UBsN3ZSBc-167">
          <mxGeometry x="430.00305724725945" y="211.43" width="124.14993909866017" height="78.57" as="geometry" />
        </mxCell>
        <mxCell id="ZHeTGY5Y9q0UBsN3ZSBc-172" value="Crear/Editar hilo" style="ellipse;whiteSpace=wrap;html=1;" vertex="1" parent="ZHeTGY5Y9q0UBsN3ZSBc-167">
          <mxGeometry x="484.08000000000004" y="422.86" width="97.93" height="87.14" as="geometry" />
        </mxCell>
        <mxCell id="ZHeTGY5Y9q0UBsN3ZSBc-173" value="Adjuntar multimedia" style="ellipse;whiteSpace=wrap;html=1;" vertex="1" parent="ZHeTGY5Y9q0UBsN3ZSBc-167">
          <mxGeometry x="480" y="570" width="106.09" height="90" as="geometry" />
        </mxCell>
        <mxCell id="ZHeTGY5Y9q0UBsN3ZSBc-174" value="Moderar/Administrar Comentarios (CRUD)" style="ellipse;whiteSpace=wrap;html=1;" vertex="1" parent="ZHeTGY5Y9q0UBsN3ZSBc-167">
          <mxGeometry x="70" y="481.57" width="127.9" height="96.86" as="geometry" />
        </mxCell>
        <mxCell id="ZHeTGY5Y9q0UBsN3ZSBc-170" value="Comentar hilo" style="ellipse;whiteSpace=wrap;html=1;" vertex="1" parent="ZHeTGY5Y9q0UBsN3ZSBc-167">
          <mxGeometry x="150" y="205.71" width="122.41" height="84.29" as="geometry" />
        </mxCell>
        <mxCell id="ZHeTGY5Y9q0UBsN3ZSBc-199" value="include" style="edgeStyle=orthogonalEdgeStyle;jettySize=auto;html=1;endArrow=none;startArrow=none;edgeLabelBackground=1;" edge="1" parent="ZHeTGY5Y9q0UBsN3ZSBc-167" source="ZHeTGY5Y9q0UBsN3ZSBc-170" target="ZHeTGY5Y9q0UBsN3ZSBc-171">
          <mxGeometry x="-0.0378" y="1" relative="1" as="geometry">
            <mxPoint as="offset" />
          </mxGeometry>
        </mxCell>
        <mxCell id="ZHeTGY5Y9q0UBsN3ZSBc-175" value="Moderar/Administrar Hilos (CRUD)" style="ellipse;whiteSpace=wrap;html=1;" vertex="1" parent="ZHeTGY5Y9q0UBsN3ZSBc-167">
          <mxGeometry x="240" y="478.71" width="120" height="102.57" as="geometry" />
        </mxCell>
        <mxCell id="ZHeTGY5Y9q0UBsN3ZSBc-176" style="edgeStyle=orthogonalEdgeStyle;rounded=0;html=1;" edge="1" parent="1" source="ZHeTGY5Y9q0UBsN3ZSBc-150" target="ZHeTGY5Y9q0UBsN3ZSBc-158">
          <mxGeometry relative="1" as="geometry">
            <Array as="points">
              <mxPoint x="170" y="26" />
              <mxPoint x="170" y="26" />
            </Array>
          </mxGeometry>
        </mxCell>
        <mxCell id="ZHeTGY5Y9q0UBsN3ZSBc-177" style="edgeStyle=orthogonalEdgeStyle;rounded=0;html=1;" edge="1" parent="1" source="ZHeTGY5Y9q0UBsN3ZSBc-150" target="ZHeTGY5Y9q0UBsN3ZSBc-155">
          <mxGeometry relative="1" as="geometry">
            <Array as="points">
              <mxPoint x="55" y="-60" />
              <mxPoint x="-120" y="-60" />
            </Array>
          </mxGeometry>
        </mxCell>
        <mxCell id="ZHeTGY5Y9q0UBsN3ZSBc-178" style="edgeStyle=orthogonalEdgeStyle;rounded=0;html=1;" edge="1" parent="1" source="ZHeTGY5Y9q0UBsN3ZSBc-150" target="ZHeTGY5Y9q0UBsN3ZSBc-156">
          <mxGeometry relative="1" as="geometry">
            <Array as="points">
              <mxPoint x="55" y="-60" />
              <mxPoint x="-260" y="-60" />
            </Array>
          </mxGeometry>
        </mxCell>
        <mxCell id="ZHeTGY5Y9q0UBsN3ZSBc-179" style="edgeStyle=orthogonalEdgeStyle;rounded=0;html=1;" edge="1" parent="1" source="ZHeTGY5Y9q0UBsN3ZSBc-151" target="ZHeTGY5Y9q0UBsN3ZSBc-158">
          <mxGeometry relative="1" as="geometry">
            <Array as="points">
              <mxPoint x="55" y="130" />
              <mxPoint x="336" y="130" />
            </Array>
          </mxGeometry>
        </mxCell>
        <mxCell id="ZHeTGY5Y9q0UBsN3ZSBc-180" style="edgeStyle=orthogonalEdgeStyle;rounded=0;html=1;" edge="1" parent="1" source="ZHeTGY5Y9q0UBsN3ZSBc-151" target="ZHeTGY5Y9q0UBsN3ZSBc-159">
          <mxGeometry relative="1" as="geometry">
            <Array as="points">
              <mxPoint x="277" y="170" />
            </Array>
          </mxGeometry>
        </mxCell>
        <mxCell id="ZHeTGY5Y9q0UBsN3ZSBc-181" style="edgeStyle=orthogonalEdgeStyle;rounded=0;html=1;" edge="1" parent="1" source="ZHeTGY5Y9q0UBsN3ZSBc-151" target="ZHeTGY5Y9q0UBsN3ZSBc-160">
          <mxGeometry relative="1" as="geometry">
            <Array as="points">
              <mxPoint x="435" y="170" />
            </Array>
          </mxGeometry>
        </mxCell>
        <mxCell id="ZHeTGY5Y9q0UBsN3ZSBc-182" style="edgeStyle=orthogonalEdgeStyle;rounded=0;html=1;" edge="1" parent="1" source="ZHeTGY5Y9q0UBsN3ZSBc-151" target="ZHeTGY5Y9q0UBsN3ZSBc-161">
          <mxGeometry relative="1" as="geometry">
            <Array as="points">
              <mxPoint x="773" y="170" />
            </Array>
          </mxGeometry>
        </mxCell>
        <mxCell id="ZHeTGY5Y9q0UBsN3ZSBc-183" style="edgeStyle=orthogonalEdgeStyle;rounded=0;html=1;" edge="1" parent="1" source="ZHeTGY5Y9q0UBsN3ZSBc-151" target="ZHeTGY5Y9q0UBsN3ZSBc-162">
          <mxGeometry relative="1" as="geometry">
            <Array as="points">
              <mxPoint x="55" y="130" />
              <mxPoint x="510" y="130" />
            </Array>
          </mxGeometry>
        </mxCell>
        <mxCell id="ZHeTGY5Y9q0UBsN3ZSBc-184" style="edgeStyle=orthogonalEdgeStyle;rounded=0;html=1;" edge="1" parent="1" source="ZHeTGY5Y9q0UBsN3ZSBc-204" target="ZHeTGY5Y9q0UBsN3ZSBc-168">
          <mxGeometry relative="1" as="geometry">
            <mxPoint x="110" y="570" as="sourcePoint" />
            <Array as="points">
              <mxPoint x="220" y="690" />
              <mxPoint x="220" y="767" />
            </Array>
          </mxGeometry>
        </mxCell>
        <mxCell id="ZHeTGY5Y9q0UBsN3ZSBc-185" style="edgeStyle=orthogonalEdgeStyle;rounded=0;html=1;" edge="1" parent="1" source="ZHeTGY5Y9q0UBsN3ZSBc-204" target="ZHeTGY5Y9q0UBsN3ZSBc-169">
          <mxGeometry relative="1" as="geometry">
            <Array as="points">
              <mxPoint x="652" y="690" />
            </Array>
          </mxGeometry>
        </mxCell>
        <mxCell id="ZHeTGY5Y9q0UBsN3ZSBc-187" style="edgeStyle=orthogonalEdgeStyle;rounded=0;html=1;" edge="1" parent="1" source="ZHeTGY5Y9q0UBsN3ZSBc-152" target="ZHeTGY5Y9q0UBsN3ZSBc-174">
          <mxGeometry relative="1" as="geometry" />
        </mxCell>
        <mxCell id="ZHeTGY5Y9q0UBsN3ZSBc-188" style="edgeStyle=orthogonalEdgeStyle;rounded=0;html=1;" edge="1" parent="1" source="ZHeTGY5Y9q0UBsN3ZSBc-153" target="ZHeTGY5Y9q0UBsN3ZSBc-163">
          <mxGeometry relative="1" as="geometry" />
        </mxCell>
        <mxCell id="ZHeTGY5Y9q0UBsN3ZSBc-189" style="edgeStyle=orthogonalEdgeStyle;rounded=0;html=1;" edge="1" parent="1" source="ZHeTGY5Y9q0UBsN3ZSBc-153" target="ZHeTGY5Y9q0UBsN3ZSBc-164">
          <mxGeometry relative="1" as="geometry" />
        </mxCell>
        <mxCell id="ZHeTGY5Y9q0UBsN3ZSBc-192" style="edgeStyle=orthogonalEdgeStyle;rounded=0;html=1;" edge="1" parent="1" source="ZHeTGY5Y9q0UBsN3ZSBc-153" target="ZHeTGY5Y9q0UBsN3ZSBc-163">
          <mxGeometry relative="1" as="geometry">
            <mxPoint x="540" y="569.5" as="sourcePoint" />
            <mxPoint x="1065.7777777777778" y="111.5" as="targetPoint" />
          </mxGeometry>
        </mxCell>
        <mxCell id="ZHeTGY5Y9q0UBsN3ZSBc-197" value="include" style="edgeStyle=orthogonalEdgeStyle;jettySize=auto;html=1;endArrow=none;startArrow=none;edgeLabelBackground=1;" edge="1" parent="1" source="ZHeTGY5Y9q0UBsN3ZSBc-161" target="ZHeTGY5Y9q0UBsN3ZSBc-165">
          <mxGeometry x="-0.0461" relative="1" as="geometry">
            <mxPoint as="offset" />
          </mxGeometry>
        </mxCell>
        <mxCell id="ZHeTGY5Y9q0UBsN3ZSBc-200" value="include" style="edgeStyle=orthogonalEdgeStyle;jettySize=auto;html=1;endArrow=none;startArrow=none;edgeLabelBackground=1;" edge="1" parent="1" source="ZHeTGY5Y9q0UBsN3ZSBc-172" target="ZHeTGY5Y9q0UBsN3ZSBc-173">
          <mxGeometry x="-0.0252" y="2" relative="1" as="geometry">
            <mxPoint as="offset" />
          </mxGeometry>
        </mxCell>
        <mxCell id="ZHeTGY5Y9q0UBsN3ZSBc-203" value="Administrador/a_Blog" style="shape=umlActor;verticalLabelPosition=bottom;verticalAlign=top;" vertex="1" parent="1">
          <mxGeometry x="40" y="960" width="30" height="60" as="geometry" />
        </mxCell>
        <mxCell id="ZHeTGY5Y9q0UBsN3ZSBc-204" value="Usuario_Blog" style="shape=umlActor;verticalLabelPosition=bottom;verticalAlign=top;" vertex="1" parent="1">
          <mxGeometry x="40" y="690" width="30" height="60" as="geometry" />
        </mxCell>
        <mxCell id="ZHeTGY5Y9q0UBsN3ZSBc-186" style="edgeStyle=orthogonalEdgeStyle;rounded=0;html=1;" edge="1" parent="1" source="ZHeTGY5Y9q0UBsN3ZSBc-204" target="ZHeTGY5Y9q0UBsN3ZSBc-170">
          <mxGeometry relative="1" as="geometry">
            <mxPoint x="68" y="690.0000000000002" as="sourcePoint" />
            <mxPoint x="413.42222222222244" y="1394.666666666667" as="targetPoint" />
            <Array as="points">
              <mxPoint x="220" y="690" />
              <mxPoint x="220" y="900" />
            </Array>
          </mxGeometry>
        </mxCell>
        <mxCell id="ZHeTGY5Y9q0UBsN3ZSBc-205" value="" style="edgeStyle=orthogonalEdgeStyle;rounded=0;html=1;" edge="1" parent="1" source="ZHeTGY5Y9q0UBsN3ZSBc-203" target="ZHeTGY5Y9q0UBsN3ZSBc-170">
          <mxGeometry relative="1" as="geometry">
            <mxPoint x="70" y="880" as="sourcePoint" />
            <mxPoint x="999" y="944" as="targetPoint" />
            <Array as="points">
              <mxPoint x="370" y="990" />
            </Array>
          </mxGeometry>
        </mxCell>
        <mxCell id="ZHeTGY5Y9q0UBsN3ZSBc-191" style="edgeStyle=orthogonalEdgeStyle;rounded=0;html=1;" edge="1" parent="1" source="ZHeTGY5Y9q0UBsN3ZSBc-203" target="ZHeTGY5Y9q0UBsN3ZSBc-174">
          <mxGeometry relative="1" as="geometry">
            <mxPoint x="90" y="1040" as="sourcePoint" />
            <mxPoint x="909.777815977805" y="1056.947368421053" as="targetPoint" />
            <Array as="points">
              <mxPoint x="290" y="990" />
            </Array>
          </mxGeometry>
        </mxCell>
        <mxCell id="ZHeTGY5Y9q0UBsN3ZSBc-190" style="edgeStyle=orthogonalEdgeStyle;rounded=0;html=1;" edge="1" parent="1" source="ZHeTGY5Y9q0UBsN3ZSBc-203" target="ZHeTGY5Y9q0UBsN3ZSBc-175">
          <mxGeometry relative="1" as="geometry">
            <mxPoint x="70" y="1020" as="sourcePoint" />
            <mxPoint x="999.2444444444441" y="1184" as="targetPoint" />
            <Array as="points">
              <mxPoint x="457" y="990" />
            </Array>
          </mxGeometry>
        </mxCell>
        <mxCell id="ZHeTGY5Y9q0UBsN3ZSBc-206" style="edgeStyle=orthogonalEdgeStyle;rounded=0;html=1;" edge="1" parent="1" source="ZHeTGY5Y9q0UBsN3ZSBc-203" target="ZHeTGY5Y9q0UBsN3ZSBc-172">
          <mxGeometry relative="1" as="geometry">
            <mxPoint x="80" y="1267.142857142857" as="sourcePoint" />
            <mxPoint x="395" y="1198.5714285714284" as="targetPoint" />
            <Array as="points">
              <mxPoint x="693" y="990" />
            </Array>
          </mxGeometry>
        </mxCell>
        <mxCell id="ZHeTGY5Y9q0UBsN3ZSBc-209" style="edgeStyle=orthogonalEdgeStyle;rounded=0;html=1;" edge="1" parent="1" source="ZHeTGY5Y9q0UBsN3ZSBc-152" target="ZHeTGY5Y9q0UBsN3ZSBc-175">
          <mxGeometry relative="1" as="geometry">
            <mxPoint x="200" y="1312" as="sourcePoint" />
            <mxPoint x="432" y="1260" as="targetPoint" />
          </mxGeometry>
        </mxCell>
        <mxCell id="ZHeTGY5Y9q0UBsN3ZSBc-210" style="edgeStyle=orthogonalEdgeStyle;rounded=0;html=1;" edge="1" parent="1" source="ZHeTGY5Y9q0UBsN3ZSBc-152" target="ZHeTGY5Y9q0UBsN3ZSBc-170">
          <mxGeometry relative="1" as="geometry">
            <mxPoint x="100" y="1310" as="sourcePoint" />
            <mxPoint x="470" y="1241" as="targetPoint" />
            <Array as="points">
              <mxPoint x="370" y="1280" />
            </Array>
          </mxGeometry>
        </mxCell>
        <mxCell id="ZHeTGY5Y9q0UBsN3ZSBc-211" style="edgeStyle=orthogonalEdgeStyle;rounded=0;html=1;" edge="1" parent="1" source="ZHeTGY5Y9q0UBsN3ZSBc-203" target="ZHeTGY5Y9q0UBsN3ZSBc-168">
          <mxGeometry relative="1" as="geometry">
            <mxPoint x="100" y="910" as="sourcePoint" />
            <mxPoint x="890" y="920" as="targetPoint" />
            <Array as="points">
              <mxPoint x="760" y="990" />
              <mxPoint x="760" y="840" />
              <mxPoint x="480" y="840" />
              <mxPoint x="480" y="770" />
            </Array>
          </mxGeometry>
        </mxCell>
        <mxCell id="ZHeTGY5Y9q0UBsN3ZSBc-212" style="edgeStyle=orthogonalEdgeStyle;rounded=0;html=1;" edge="1" parent="1" source="ZHeTGY5Y9q0UBsN3ZSBc-152" target="ZHeTGY5Y9q0UBsN3ZSBc-168">
          <mxGeometry relative="1" as="geometry">
            <mxPoint x="80" y="1290" as="sourcePoint" />
            <mxPoint x="381" y="950" as="targetPoint" />
            <Array as="points">
              <mxPoint x="240" y="1280" />
              <mxPoint x="240" y="1340" />
              <mxPoint x="760" y="1340" />
              <mxPoint x="760" y="840" />
              <mxPoint x="480" y="840" />
              <mxPoint x="480" y="770" />
            </Array>
          </mxGeometry>
        </mxCell>
        <mxCell id="ZHeTGY5Y9q0UBsN3ZSBc-213" value="Servicio de Correo Electrónico" style="ellipse;dashed=1;whiteSpace=wrap;html=1;" vertex="1" parent="1">
          <mxGeometry x="-180" y="110" width="120" height="80" as="geometry" />
        </mxCell>
        <mxCell id="ZHeTGY5Y9q0UBsN3ZSBc-214" value="include" style="edgeStyle=orthogonalEdgeStyle;jettySize=auto;html=1;endArrow=none;startArrow=none;edgeLabelBackground=1;" edge="1" parent="1" source="ZHeTGY5Y9q0UBsN3ZSBc-155" target="ZHeTGY5Y9q0UBsN3ZSBc-213">
          <mxGeometry x="-0.0461" relative="1" as="geometry">
            <mxPoint as="offset" />
            <mxPoint x="784" y="318" as="sourcePoint" />
            <mxPoint x="784" y="448" as="targetPoint" />
            <Array as="points">
              <mxPoint x="-120" y="30" />
              <mxPoint x="-120" y="30" />
            </Array>
          </mxGeometry>
        </mxCell>
        <mxCell id="ZHeTGY5Y9q0UBsN3ZSBc-216" value="include" style="edgeStyle=orthogonalEdgeStyle;jettySize=auto;html=1;endArrow=none;startArrow=none;edgeLabelBackground=1;" edge="1" parent="1" source="ZHeTGY5Y9q0UBsN3ZSBc-156" target="ZHeTGY5Y9q0UBsN3ZSBc-151">
          <mxGeometry x="-0.0461" relative="1" as="geometry">
            <mxPoint as="offset" />
            <mxPoint x="784" y="318" as="sourcePoint" />
            <mxPoint x="784" y="448" as="targetPoint" />
            <Array as="points">
              <mxPoint x="-260" y="300" />
              <mxPoint x="55" y="300" />
            </Array>
          </mxGeometry>
        </mxCell>
      </root>
    </mxGraphModel>
  </diagram>
</mxfile>
